<svg width="37" height="37" viewBox="0 0 37 37" fill="none" xmlns="http://www.w3.org/2000/svg">
<g clip-path="url(#clip0)">
<path d="M18.5 0C13.5935 0 8.88795 1.9491 5.41852 5.41852C1.9491 8.88795 0 13.5935 0 18.5C0 23.4065 1.9491 28.1121 5.41852 31.5815C8.88795 35.0509 13.5935 37 18.5 37C23.4065 37 28.1121 35.0509 31.5815 31.5815C35.0509 28.1121 37 23.4065 37 18.5C37 13.5935 35.0509 8.88795 31.5815 5.41852C28.1121 1.9491 23.4065 0 18.5 0V0ZM18.5 33.5312C14.5135 33.5312 10.6902 31.9476 7.8713 29.1287C5.05239 26.3098 3.46875 22.4865 3.46875 18.5C3.46875 14.5135 5.05239 10.6902 7.8713 7.8713C10.6902 5.05239 14.5135 3.46875 18.5 3.46875C22.4865 3.46875 26.3098 5.05239 29.1287 7.8713C31.9476 10.6902 33.5312 14.5135 33.5312 18.5C33.5312 22.4865 31.9476 26.3098 29.1287 29.1287C26.3098 31.9476 22.4865 33.5312 18.5 33.5312Z" fill="#FEFFFF"/>
<path d="M24.2812 9.25L18.5 15.0312L12.7188 9.25L9.25 12.7188L15.0312 18.5L9.25 24.2812L12.7188 27.75L18.5 21.9688L24.2812 27.75L27.75 24.2812L21.9688 18.5L27.75 12.7188L24.2812 9.25Z" fill="#FEFFFF"/>
</g>
<defs>
<clipPath id="clip0">
<rect width="37" height="37" fill="white"/>
</clipPath>
</defs>
</svg>
