<svg width="59" height="59" viewBox="0 0 59 59" fill="none" xmlns="http://www.w3.org/2000/svg">
<path d="M58.125 13.3567C58.1249 14.0497 57.8504 14.7185 57.3536 15.2364C56.8567 15.7542 56.1721 16.0851 55.4295 16.1662L55.0724 16.186H52.4929L48.7351 51.6084C48.5305 53.5305 47.5619 55.3133 46.0176 56.6102C44.4734 57.907 42.4639 58.6252 40.3801 58.625H17.8699C15.7861 58.6252 13.7766 57.907 12.2324 56.6102C10.6881 55.3133 9.71949 53.5305 9.5149 51.6084L5.7571 16.186H3.17763C2.36802 16.186 1.59157 15.8879 1.01909 15.3573C0.446615 14.8267 0.125 14.1071 0.125 13.3567C0.125 12.6063 0.446615 11.8867 1.01909 11.3561C1.59157 10.8255 2.36802 10.5274 3.17763 10.5274H18.4408C18.4408 9.22703 18.7171 7.93936 19.2541 6.73794C19.791 5.53652 20.578 4.44488 21.5701 3.52536C22.5622 2.60583 23.7401 1.87642 25.0363 1.37878C26.3326 0.881134 27.7219 0.625 29.125 0.625C30.5281 0.625 31.9174 0.881134 33.2137 1.37878C34.5099 1.87642 35.6878 2.60583 36.6799 3.52536C37.672 4.44488 38.459 5.53652 38.9959 6.73794C39.5329 7.93936 39.8092 9.22703 39.8092 10.5274H55.0724C55.882 10.5274 56.6584 10.8255 57.2309 11.3561C57.8034 11.8867 58.125 12.6063 58.125 13.3567ZM35.9934 22.5518C35.4402 22.5519 34.9056 22.7375 34.4887 23.0746C34.0717 23.4116 33.8006 23.8772 33.7253 24.3852L33.7039 24.6738V44.4787L33.7253 44.7672C33.8007 45.2751 34.072 45.7405 34.4889 46.0774C34.9058 46.4144 35.4403 46.6 35.9934 46.6C36.5466 46.6 37.081 46.4144 37.4979 46.0774C37.9149 45.7405 38.1861 45.2751 38.2615 44.7672L38.2829 44.4787V24.6738L38.2615 24.3852C38.1863 23.8772 37.9151 23.4116 37.4982 23.0746C37.0812 22.7375 36.5467 22.5519 35.9934 22.5518V22.5518ZM22.2566 22.5518C21.7033 22.5519 21.1688 22.7375 20.7518 23.0746C20.3349 23.4116 20.0637 23.8772 19.9885 24.3852L19.9671 24.6738V44.4787L19.9885 44.7672C20.0639 45.2751 20.3351 45.7405 20.7521 46.0774C21.169 46.4144 21.7034 46.6 22.2566 46.6C22.8097 46.6 23.3442 46.4144 23.7611 46.0774C24.178 45.7405 24.4493 45.2751 24.5247 44.7672L24.5461 44.4787V24.6738L24.5247 24.3852C24.4494 23.8772 24.1783 23.4116 23.7613 23.0746C23.3444 22.7375 22.8098 22.5519 22.2566 22.5518V22.5518ZM29.125 6.28354C27.9106 6.28354 26.7459 6.73066 25.8872 7.52655C25.0285 8.32243 24.5461 9.40189 24.5461 10.5274H33.7039C33.7039 9.40189 33.2215 8.32243 32.3628 7.52655C31.5041 6.73066 30.3394 6.28354 29.125 6.28354Z" fill="#CD5C5C"/>
</svg>
