<svg width="37" height="37" viewBox="0 0 37 37" fill="none" xmlns="http://www.w3.org/2000/svg">
<path d="M25.3973 8.33731L28.6626 11.601L25.3973 8.33731ZM27.4971 5.4621L18.668 14.2912C18.2118 14.7468 17.9006 15.3272 17.7738 15.9593L16.9583 20.0416L21.0406 19.2246C21.6727 19.0981 22.2523 18.7883 22.7087 18.3319L31.5378 9.50281C31.8031 9.23749 32.0136 8.92252 32.1572 8.57586C32.3007 8.22921 32.3746 7.85767 32.3746 7.48246C32.3746 7.10724 32.3007 6.7357 32.1572 6.38905C32.0136 6.0424 31.8031 5.72742 31.5378 5.4621C31.2725 5.19679 30.9575 4.98632 30.6108 4.84274C30.2642 4.69915 29.8927 4.62524 29.5174 4.62524C29.1422 4.62524 28.7707 4.69915 28.424 4.84274C28.0774 4.98632 27.7624 5.19679 27.4971 5.4621V5.4621Z" stroke="#FEFFFF" stroke-width="2" stroke-linecap="round" stroke-linejoin="round"/>
<path d="M29.2916 23.1249V27.7499C29.2916 28.5677 28.9668 29.3519 28.3885 29.9302C27.8103 30.5084 27.026 30.8333 26.2083 30.8333H9.24996C8.43221 30.8333 7.64795 30.5084 7.06971 29.9302C6.49148 29.3519 6.16663 28.5677 6.16663 27.7499V10.7916C6.16663 9.97383 6.49148 9.18958 7.06971 8.61134C7.64795 8.0331 8.43221 7.70825 9.24996 7.70825H13.875" stroke="#FEFFFF" stroke-width="2" stroke-linecap="round" stroke-linejoin="round"/>
</svg>
