<svg width="66" height="70" viewBox="0 0 66 70" fill="none" xmlns="http://www.w3.org/2000/svg">
<path d="M19.7163 3.5804C20.2314 2.50404 21.021 1.59928 21.997 0.967062C22.973 0.334844 24.0969 3.71637e-05 25.2434 0H40.769C41.9186 4.08105e-05 43.0455 0.336681 44.0232 0.972161C45.0009 1.60764 45.7909 2.51683 46.3044 3.59774L48.7173 8.66925H55.6881C58.423 8.66925 61.0459 9.81095 62.9797 11.8432C64.9136 13.8754 66 16.6318 66 19.5058V29.0203C64.7955 27.9263 63.3923 27.1005 61.8753 26.5929V19.5058C61.8753 17.7814 61.2234 16.1276 60.0631 14.9082C58.9028 13.6889 57.3291 13.0039 55.6881 13.0039H47.4387C47.0567 13.0031 46.6824 12.8908 46.3576 12.6795C46.0328 12.4683 45.7702 12.1664 45.599 11.8075L42.6168 5.53531C42.4457 5.1743 42.182 4.87065 41.8555 4.65853C41.5291 4.44641 41.1528 4.33423 40.769 4.33462H25.2434C24.8612 4.33423 24.4863 4.44549 24.1608 4.65598C23.8352 4.86647 23.5717 5.16791 23.3997 5.52664L20.3969 11.8075C20.2252 12.1656 19.9623 12.4666 19.6375 12.677C19.3127 12.8875 18.9388 12.9991 18.5572 12.9995H10.316C8.67506 12.9995 7.10134 13.6846 5.94103 14.9039C4.78072 16.1233 4.12887 17.777 4.12887 19.5015V54.1828C4.12887 55.9072 4.78072 57.561 5.94103 58.7803C7.10134 59.9997 8.67506 60.6847 10.316 60.6847H25.6435L24.9712 63.5152C24.8516 64.0224 24.7773 64.5252 24.7485 65.0193H10.3119C7.57698 65.0193 4.95412 63.8776 3.02027 61.8454C1.08642 59.8131 0 57.0568 0 54.1828V19.5058C0 16.6318 1.08642 13.8754 3.02027 11.8432C4.95412 9.81095 7.57698 8.66925 10.3119 8.66925H17.2827L19.7163 3.5804V3.5804Z" fill="#FEFFFF"/>
<path d="M49.0187 30.5855C48.0523 26.4777 45.6905 22.8828 42.3779 20.4773C39.0652 18.0718 35.0302 17.0217 31.0321 17.5246C27.0341 18.0275 23.3489 20.0487 20.67 23.2078C17.9911 26.3669 16.5034 30.446 16.4868 34.6774C16.4868 42.8698 21.8902 49.7315 29.158 51.5477C29.4213 51.2135 29.6993 50.8923 29.9912 50.5855L32.7548 47.6813C30.3277 47.6332 27.9677 46.836 25.9685 45.3888C23.9693 43.9417 22.4194 41.9086 21.5116 39.5426C20.6038 37.1767 20.3782 34.5824 20.863 32.0827C21.3478 29.583 22.5216 27.2884 24.2381 25.4846C25.9546 23.6807 28.1381 22.4473 30.5167 21.9378C32.8954 21.4283 35.3641 21.6653 37.6155 22.6193C39.8669 23.5733 41.8015 25.2022 43.1786 27.303C44.5556 29.4039 45.3143 31.8841 45.36 34.4347L49.0228 30.5855H49.0187Z" fill="#FEFFFF"/>
<path d="M52.826 32.7179L32.9035 53.6542C31.7424 54.8738 30.9183 56.402 30.5194 58.0755L28.9726 64.5687C28.8201 65.2145 28.8291 65.8908 28.9988 66.5319C29.1684 67.173 29.493 67.757 29.9409 68.2273C30.3889 68.6976 30.9449 69.0381 31.5551 69.2158C32.1653 69.3935 32.8088 69.4024 33.4232 69.2415L39.6021 67.6203C41.1942 67.1999 42.6503 66.3373 43.8093 65.1149L63.7318 44.1787C65.1596 42.6543 65.9561 40.5987 65.9478 38.4598C65.9396 36.3209 65.1272 34.2721 63.6877 32.76C62.2482 31.2478 60.2984 30.3949 58.263 30.387C56.2277 30.3791 54.2719 31.217 52.8219 32.7179H52.826Z" fill="#FEFFFF"/>
</svg>
