<svg width="26" height="21" viewBox="0 0 26 21" fill="none" xmlns="http://www.w3.org/2000/svg">
<path d="M24.375 0H1.625C1.19402 0 0.780698 0.184374 0.475951 0.512563C0.171205 0.840752 0 1.28587 0 1.75V19.25C0 19.7141 0.171205 20.1592 0.475951 20.4874C0.780698 20.8156 1.19402 21 1.625 21H24.375C24.806 21 25.2193 20.8156 25.524 20.4874C25.8288 20.1592 26 19.7141 26 19.25V1.75C26 1.28587 25.8288 0.840752 25.524 0.512563C25.2193 0.184374 24.806 0 24.375 0ZM23.1237 19.25H2.97375L8.66125 12.915L7.49125 11.6988L1.625 18.235V3.08L11.7244 13.9038C12.0288 14.2297 12.4407 14.4126 12.87 14.4126C13.2993 14.4126 13.7112 14.2297 14.0156 13.9038L24.375 2.80875V18.1212L18.395 11.6813L17.2494 12.915L23.1237 19.25ZM2.68937 1.75H23.0588L12.87 12.6613L2.68937 1.75Z" fill="#2B7A78"/>
</svg>
