<svg width="24" height="27" viewBox="0 0 24 27" fill="none" xmlns="http://www.w3.org/2000/svg">
<path d="M21.6616 9.34065H21.0345V6.31497C21.034 6.29575 21.0321 6.27659 21.0289 6.25762C21.0298 6.13608 20.9864 6.01837 20.9068 5.92647L15.873 0.17575L15.8693 0.17205C15.8391 0.139484 15.8049 0.110888 15.7675 0.0869499L15.7343 0.0665996C15.7023 0.0488193 15.6685 0.0345528 15.6334 0.0240496L15.6057 0.0147998C15.5672 0.00521774 15.5278 0.000249574 15.4882 0H3.11447C2.5493 0 2.0905 0.459725 2.0905 1.02397V9.33972H1.46335C0.6549 9.33972 0 9.99462 0 10.8031V18.414C0 19.2215 0.655825 19.8773 1.46335 19.8773H2.0905V25.0869C2.0905 25.6512 2.5493 26.1109 3.11447 26.1109H20.0105C20.5748 26.1109 21.0345 25.6512 21.0345 25.0869V19.8773H21.6616C22.4692 19.8773 23.125 19.2224 23.125 18.414V10.8031C23.125 9.99555 22.4701 9.34065 21.6616 9.34065ZM3.11447 1.02397H14.9758V6.26317C14.9758 6.54622 15.2051 6.7747 15.4882 6.7747H20.0115V9.33972H3.11447V1.02397V1.02397ZM10.7753 15.0544C9.53213 14.6104 8.71165 13.9222 8.71165 12.8353C8.71165 11.5597 9.78835 10.5949 11.5412 10.5949C12.3959 10.5949 13.0055 10.7614 13.4495 10.9714L13.0721 12.3247C12.5884 12.0891 12.057 11.9679 11.519 11.9704C10.7864 11.9704 10.4312 12.3136 10.4312 12.691C10.4312 13.1683 10.841 13.3783 11.8178 13.7446C13.1387 14.233 13.7483 14.9202 13.7483 15.9747C13.7483 17.229 12.7946 18.2937 10.742 18.2937C9.88733 18.2937 9.04465 18.0606 8.62285 17.8275L8.96695 16.4409C9.5478 16.7375 10.1889 16.897 10.841 16.9071C11.618 16.9071 12.0287 16.5843 12.0287 16.0968C12.0287 15.6306 11.6744 15.3652 10.7753 15.0544V15.0544ZM1.96378 14.5438C1.96378 12.0028 3.78325 10.594 6.0458 10.594C6.9227 10.594 7.58778 10.7707 7.88748 10.9159L7.53227 12.2581C7.08296 12.0694 6.59969 11.975 6.1124 11.9806C4.78132 11.9806 3.73885 12.79 3.73885 14.454C3.73885 15.9405 4.62592 16.884 6.1235 16.884C6.6452 16.884 7.2002 16.785 7.54337 16.6398L7.7885 17.9709C7.4888 18.1143 6.7784 18.2928 5.88023 18.2928C3.29485 18.2937 1.96378 16.674 1.96378 14.5438V14.5438ZM20.0105 24.8113H3.11447V19.8782H20.0105V24.8113V24.8113ZM18.6434 18.1827H16.6685L14.2728 10.705H16.1255L17.0348 13.8676C17.2892 14.7658 17.5223 15.6094 17.6999 16.5408H17.7332C17.9223 15.652 18.1479 14.7713 18.4094 13.9009L19.364 10.7059H21.1603L18.6434 18.1827V18.1827Z" fill="#FEFFFF"/>
</svg>
