<svg width="127" height="58" viewBox="0 0 127 58" fill="none" xmlns="http://www.w3.org/2000/svg">
<rect width="127" height="58" rx="25" fill="#2B7A78"/>
<path d="M80.0542 20.4092H78.9525V15.0939C78.9516 15.0601 78.9483 15.0264 78.9427 14.9931C78.9443 14.7796 78.868 14.5728 78.7282 14.4114L69.885 4.30875L69.8785 4.30225C69.8255 4.24504 69.7654 4.1948 69.6997 4.15275L69.6413 4.117C69.5851 4.08576 69.5257 4.0607 69.4641 4.04225L69.4154 4.026C69.3479 4.00917 69.2786 4.00044 69.209 4H47.4714C46.4785 4 45.6725 4.80762 45.6725 5.79887V20.4076H44.5707C43.1505 20.4076 42 21.5581 42 22.9784V36.3489C42 37.7675 43.1521 38.9196 44.5707 38.9196H45.6725V48.0716C45.6725 49.0629 46.4785 49.8705 47.4714 49.8705H77.1536C78.1449 49.8705 78.9525 49.0629 78.9525 48.0716V38.9196H80.0542C81.4729 38.9196 82.625 37.7691 82.625 36.3489V22.9784C82.625 21.5597 81.4745 20.4092 80.0542 20.4092ZM47.4714 5.79887H68.3088V15.0029C68.3088 15.5001 68.7118 15.9015 69.209 15.9015H77.1553V20.4076H47.4714V5.79887ZM60.9296 30.4469C58.7456 29.6669 57.3042 28.4579 57.3042 26.5485C57.3042 24.3076 59.1957 22.6127 62.2751 22.6127C63.7766 22.6127 64.8475 22.9052 65.6275 23.2741L64.9645 25.6515C64.1148 25.2376 63.1813 25.0247 62.2361 25.0291C60.9491 25.0291 60.3251 25.632 60.3251 26.295C60.3251 27.1335 61.045 27.5024 62.761 28.1459C65.0815 29.0039 66.1524 30.2112 66.1524 32.0637C66.1524 34.2672 64.477 36.1376 60.8711 36.1376C59.3696 36.1376 57.8893 35.7281 57.1483 35.3186L57.7528 32.8827C58.7732 33.4038 59.8994 33.6839 61.045 33.7017C62.41 33.7017 63.1315 33.1346 63.1315 32.2782C63.1315 31.4592 62.5091 30.9929 60.9296 30.4469ZM45.4499 29.5499C45.4499 25.086 48.6463 22.6111 52.621 22.6111C54.1615 22.6111 55.3299 22.9215 55.8564 23.1766L55.2324 25.5345C54.443 25.203 53.5941 25.0371 52.738 25.047C50.3996 25.047 48.5682 26.4689 48.5682 29.3922C48.5682 32.0036 50.1266 33.6611 52.7575 33.6611C53.674 33.6611 54.649 33.4872 55.2519 33.2321L55.6825 35.5705C55.156 35.8224 53.908 36.136 52.3301 36.136C47.7883 36.1376 45.4499 33.2922 45.4499 29.5499ZM77.1536 47.5874H47.4714V38.9212H77.1536V47.5874ZM74.7519 35.9426H71.2825L67.0737 22.8061H70.3286L71.926 28.362C72.3729 29.9399 72.7824 31.4219 73.0944 33.0582H73.1529C73.4852 31.4967 73.8814 29.9495 74.3408 28.4205L76.0177 22.8077H79.1735L74.7519 35.9426Z" fill="#FEFFFF"/>
</svg>
