<svg width="15" height="10" viewBox="0 0 15 10" fill="none" xmlns="http://www.w3.org/2000/svg">
<path fill-rule="evenodd" clip-rule="evenodd" d="M0.0606557 0.696539C0.129193 0.400945 0.249044 0.176289 0.393929 0.071826C0.538815 -0.0326368 0.69691 -0.00838038 0.833552 0.139278L7.49776 7.35368L14.1608 0.136779C14.2286 0.0617636 14.3026 0.016557 14.3785 0.00376528C14.4544 -0.00902646 14.5307 0.0108497 14.603 0.0622481C14.6753 0.113646 14.7422 0.19555 14.7999 0.303237C14.8575 0.410924 14.9048 0.542265 14.9389 0.689687C14.973 0.837109 14.9933 0.997695 14.9986 1.16219C15.0039 1.32668 14.9941 1.49183 14.9699 1.64811C14.9456 1.80438 14.9072 1.9487 14.8571 2.07274C14.8069 2.19678 14.7459 2.29809 14.6776 2.37082L7.75616 9.8676C7.67595 9.95467 7.58748 10 7.49776 10C7.40805 10 7.31957 9.95467 7.23936 9.8676L0.317903 2.37082C0.181449 2.22235 0.0777408 1.96272 0.0295177 1.64887C-0.0187053 1.33501 -0.00750755 0.992538 0.0606557 0.696539Z" fill="#17252A"/>
</svg>
