<svg width="54" height="54" viewBox="0 0 54 54" fill="none" xmlns="http://www.w3.org/2000/svg">
<path d="M50.625 54H3.375C2.46094 54 1.66992 53.6748 1.00195 53.0244C0.333984 52.374 0 51.5742 0 50.625V16.875C0 15.9609 0.333984 15.1699 1.00195 14.502C1.66992 13.834 2.46094 13.5 3.375 13.5H13.5C13.5 12.5859 13.834 11.7949 14.502 11.127C15.1699 10.459 15.9609 10.125 16.875 10.125H20.25V3.375C20.25 2.46094 20.584 1.66992 21.252 1.00195C21.9199 0.333984 22.7109 0 23.625 0H30.375C31.3242 0 32.124 0.333984 32.7744 1.00195C33.4248 1.66992 33.75 2.46094 33.75 3.375V10.125H37.125C38.0742 10.125 38.874 10.459 39.5244 11.127C40.1748 11.7949 40.5 12.5859 40.5 13.5H50.625C51.5742 13.5 52.374 13.834 53.0244 14.502C53.6748 15.1699 54 15.9609 54 16.875V50.625C54 51.5742 53.6748 52.374 53.0244 53.0244C52.374 53.6748 51.5742 54 50.625 54ZM15.1875 20.25C12.6914 20.25 10.6611 20.8213 9.09668 21.9639C7.53223 23.1064 6.75 24.7852 6.75 27C6.75 32.9062 8.4375 36.6152 11.8125 38.127V39.1289C9.38672 39.5508 7.38281 40.3418 5.80078 41.502C4.21875 42.6621 3.41016 43.9805 3.375 45.457C3.375 45.8789 3.75293 46.2217 4.50879 46.4854C5.26465 46.749 6.37207 46.9336 7.83105 47.0391C9.29004 47.1445 10.4941 47.2061 11.4434 47.2236C12.3926 47.2412 13.6406 47.25 15.1875 47.25C16.7344 47.25 17.9824 47.2412 18.9316 47.2236C19.8809 47.2061 21.085 47.1445 22.5439 47.0391C24.0029 46.9336 25.1104 46.749 25.8662 46.4854C26.6221 46.2217 27 45.8789 27 45.457C26.9648 43.9805 26.165 42.6621 24.6006 41.502C23.0361 40.3418 21.0234 39.5508 18.5625 39.1289V38.1797C21.9375 36.8086 23.625 33.082 23.625 27V26.8418L15.4512 20.25H15.1875ZM36.7031 13.5H30.375V5.0625C30.375 4.60547 30.208 4.20996 29.874 3.87598C29.54 3.54199 29.1445 3.375 28.6875 3.375H25.3125C24.8555 3.375 24.46 3.54199 24.126 3.87598C23.792 4.20996 23.625 4.60547 23.625 5.0625V13.5H17.2441C16.9629 13.8516 16.8223 14.2559 16.8223 14.7129C16.8223 15.1699 16.9629 15.5742 17.2441 15.9258L27 23.625L36.7031 15.9258C36.9844 15.5742 37.125 15.1699 37.125 14.7129C37.125 14.2559 36.9844 13.8516 36.7031 13.5ZM48.9375 23.625H35.4375C34.9805 23.625 34.585 23.792 34.251 24.126C33.917 24.46 33.75 24.8555 33.75 25.3125C33.75 25.7695 33.917 26.165 34.251 26.499C34.585 26.833 34.9805 27 35.4375 27H48.9375C49.3945 27 49.79 26.833 50.124 26.499C50.458 26.165 50.625 25.7695 50.625 25.3125C50.625 24.8555 50.458 24.46 50.124 24.126C49.79 23.792 49.3945 23.625 48.9375 23.625ZM33.75 35.4375C33.75 35.8945 33.917 36.29 34.251 36.624C34.585 36.958 34.9805 37.125 35.4375 37.125H42.1875C42.6445 37.125 43.04 36.958 43.374 36.624C43.708 36.29 43.875 35.8945 43.875 35.4375C43.875 34.9805 43.708 34.585 43.374 34.251C43.04 33.917 42.6445 33.75 42.1875 33.75H35.4375C34.9805 33.75 34.585 33.917 34.251 34.251C33.917 34.585 33.75 34.9805 33.75 35.4375ZM48.9375 43.875H35.4375C34.9805 43.875 34.585 44.042 34.251 44.376C33.917 44.71 33.75 45.1055 33.75 45.5625C33.75 46.0195 33.917 46.415 34.251 46.749C34.585 47.083 34.9805 47.25 35.4375 47.25H48.9375C49.3945 47.25 49.79 47.083 50.124 46.749C50.458 46.415 50.625 46.0195 50.625 45.5625C50.625 45.1055 50.458 44.71 50.124 44.376C49.79 44.042 49.3945 43.875 48.9375 43.875Z" fill="#FEFFFF"/>
</svg>
