<svg width="35" height="35" viewBox="0 0 35 35" fill="none" xmlns="http://www.w3.org/2000/svg">
<path d="M26.25 12.9404H21.2695V11.6766C21.2695 10.6426 20.9082 9.77128 20.1855 9.06277C19.4629 8.35426 18.5742 8 17.5195 8H12.4805C11.4258 8 10.5371 8.35426 9.81445 9.06277C9.0918 9.77128 8.73047 10.6426 8.73047 11.6766V12.9404H3.75C2.69531 12.9404 1.80664 13.2851 1.08398 13.9745C0.361328 14.6638 0 15.5447 0 16.617V21.5C0 22.3043 0.410156 22.7064 1.23047 22.7064V32.5298C1.23047 33.1809 1.48438 33.7553 1.99219 34.2532C2.5 34.7511 3.08594 35 3.75 35H26.25C26.9141 35 27.5 34.7511 28.0078 34.2532C28.5156 33.7553 28.7695 33.1809 28.7695 32.5298V22.7064C29.5898 22.7064 30 22.3043 30 21.5V16.617C30 15.5447 29.6387 14.6638 28.916 13.9745C28.1934 13.2851 27.3047 12.9404 26.25 12.9404ZM11.25 11.6766C11.25 11.3319 11.3672 11.0447 11.6016 10.8149C11.8359 10.5851 12.1289 10.4702 12.4805 10.4702H17.5195C17.8711 10.4702 18.1641 10.5851 18.3984 10.8149C18.6328 11.0447 18.75 11.3319 18.75 11.6766V12.9404H11.25V11.6766ZM3.75 32.5298V22.7064H11.25V26.383C11.25 27.0723 11.4941 27.6564 11.9824 28.1351C12.4707 28.6138 13.0664 28.8532 13.7695 28.8532H16.2305C16.9336 28.8532 17.5293 28.6138 18.0176 28.1351C18.5059 27.6564 18.75 27.0723 18.75 26.383V22.7064H26.25V32.5298H3.75ZM13.7695 26.383V22.7064H16.2305V26.383H13.7695ZM27.4805 20.2936H2.51953V16.617C2.51953 15.7745 2.92969 15.3532 3.75 15.3532H26.25C27.0703 15.3532 27.4805 15.7745 27.4805 16.617V20.2936Z" fill="#3AAFA9"/>
</svg>
