<svg width="33" height="30" viewBox="0 0 33 30" fill="none" xmlns="http://www.w3.org/2000/svg">
<path d="M22.0001 4V3C22.0001 2.73478 21.8842 2.48043 21.6779 2.29289C21.4716 2.10536 21.1918 2 20.9001 2C20.6083 2 20.3285 2.10536 20.1222 2.29289C19.9159 2.48043 19.8001 2.73478 19.8001 3V4H11C10.4166 4 9.85699 4.21071 9.44441 4.58579C9.03183 4.96086 8.80005 5.46957 8.80005 6V26C8.80005 26.5304 9.03183 27.0391 9.44441 27.4142C9.85699 27.7893 10.4166 28 11 28H22.0001C22.5835 28 23.1431 27.7893 23.5557 27.4142C23.9683 27.0391 24.2001 26.5304 24.2001 26V6C24.2001 5.46957 23.9683 4.96086 23.5557 4.58579C23.1431 4.21071 22.5835 4 22.0001 4ZM13.2 26H11V24H13.2V26ZM13.2 22H11V20H13.2V22ZM13.2 18H11V16H13.2V18ZM17.6001 26H15.4001V24H17.6001V26ZM17.6001 22H15.4001V20H17.6001V22ZM17.6001 18H15.4001V16H17.6001V18ZM22.0001 26H19.8001V24H22.0001V26ZM22.0001 22H19.8001V20H22.0001V22ZM22.0001 18H19.8001V16H22.0001V18ZM22.0001 13C22.0001 13.2652 21.8842 13.5196 21.6779 13.7071C21.4716 13.8946 21.1918 14 20.9001 14H12.1C11.8083 14 11.5285 13.8946 11.3222 13.7071C11.1159 13.5196 11 13.2652 11 13V7C11 6.73478 11.1159 6.48043 11.3222 6.29289C11.5285 6.10536 11.8083 6 12.1 6H20.9001C21.1918 6 21.4716 6.10536 21.6779 6.29289C21.8842 6.48043 22.0001 6.73478 22.0001 7V13Z" fill="#2B7A78"/>
</svg>
