<svg width="17" height="31" viewBox="0 0 17 31" fill="none" xmlns="http://www.w3.org/2000/svg">
<path d="M14.3333 2.66671V1.50004C14.3333 1.19062 14.2103 0.893875 13.9915 0.675083C13.7728 0.45629 13.476 0.333374 13.1666 0.333374C12.8572 0.333374 12.5604 0.45629 12.3416 0.675083C12.1228 0.893875 11.9999 1.19062 11.9999 1.50004V2.66671H2.66659C2.04775 2.66671 1.45425 2.91254 1.01667 3.35013C0.579085 3.78771 0.333252 4.3812 0.333252 5.00004V28.3334C0.333252 28.9522 0.579085 29.5457 1.01667 29.9833C1.45425 30.4209 2.04775 30.6667 2.66659 30.6667H14.3333C14.9521 30.6667 15.5456 30.4209 15.9832 29.9833C16.4208 29.5457 16.6666 28.9522 16.6666 28.3334V5.00004C16.6666 4.3812 16.4208 3.78771 15.9832 3.35013C15.5456 2.91254 14.9521 2.66671 14.3333 2.66671ZM4.99992 28.3334H2.66659V26H4.99992V28.3334ZM4.99992 23.6667H2.66659V21.3334H4.99992V23.6667ZM4.99992 19H2.66659V16.6667H4.99992V19ZM9.66659 28.3334H7.33325V26H9.66659V28.3334ZM9.66659 23.6667H7.33325V21.3334H9.66659V23.6667ZM9.66659 19H7.33325V16.6667H9.66659V19ZM14.3333 28.3334H11.9999V26H14.3333V28.3334ZM14.3333 23.6667H11.9999V21.3334H14.3333V23.6667ZM14.3333 19H11.9999V16.6667H14.3333V19ZM14.3333 13.1667C14.3333 13.4761 14.2103 13.7729 13.9915 13.9917C13.7728 14.2105 13.476 14.3334 13.1666 14.3334H3.83325C3.52383 14.3334 3.22709 14.2105 3.00829 13.9917C2.7895 13.7729 2.66659 13.4761 2.66659 13.1667V6.16671C2.66659 5.85729 2.7895 5.56054 3.00829 5.34175C3.22709 5.12296 3.52383 5.00004 3.83325 5.00004H13.1666C13.476 5.00004 13.7728 5.12296 13.9915 5.34175C14.2103 5.56054 14.3333 5.85729 14.3333 6.16671V13.1667Z" fill="#3AAFA9"/>
</svg>
