<svg width="35" height="35" viewBox="0 0 35 35" fill="none" xmlns="http://www.w3.org/2000/svg">
<path d="M23.3333 4.66668V3.50002C23.3333 3.1906 23.2103 2.89385 22.9915 2.67506C22.7728 2.45627 22.476 2.33335 22.1666 2.33335C21.8572 2.33335 21.5604 2.45627 21.3416 2.67506C21.1228 2.89385 20.9999 3.1906 20.9999 3.50002V4.66668H11.6666C11.0477 4.66668 10.4543 4.91252 10.0167 5.3501C9.57909 5.78769 9.33325 6.38118 9.33325 7.00002V30.3334C9.33325 30.9522 9.57909 31.5457 10.0167 31.9833C10.4543 32.4209 11.0477 32.6667 11.6666 32.6667H23.3333C23.9521 32.6667 24.5456 32.4209 24.9832 31.9833C25.4208 31.5457 25.6666 30.9522 25.6666 30.3334V7.00002C25.6666 6.38118 25.4208 5.78769 24.9832 5.3501C24.5456 4.91252 23.9521 4.66668 23.3333 4.66668ZM13.9999 30.3334H11.6666V28H13.9999V30.3334ZM13.9999 25.6667H11.6666V23.3334H13.9999V25.6667ZM13.9999 21H11.6666V18.6667H13.9999V21ZM18.6666 30.3334H16.3333V28H18.6666V30.3334ZM18.6666 25.6667H16.3333V23.3334H18.6666V25.6667ZM18.6666 21H16.3333V18.6667H18.6666V21ZM23.3333 30.3334H20.9999V28H23.3333V30.3334ZM23.3333 25.6667H20.9999V23.3334H23.3333V25.6667ZM23.3333 21H20.9999V18.6667H23.3333V21ZM23.3333 15.1667C23.3333 15.4761 23.2103 15.7729 22.9915 15.9916C22.7728 16.2104 22.476 16.3334 22.1666 16.3334H12.8333C12.5238 16.3334 12.2271 16.2104 12.0083 15.9916C11.7895 15.7729 11.6666 15.4761 11.6666 15.1667V8.16669C11.6666 7.85727 11.7895 7.56052 12.0083 7.34173C12.2271 7.12293 12.5238 7.00002 12.8333 7.00002H22.1666C22.476 7.00002 22.7728 7.12293 22.9915 7.34173C23.2103 7.56052 23.3333 7.85727 23.3333 8.16669V15.1667Z" fill="#3AAFA9"/>
</svg>
