<svg width="344" height="248" viewBox="0 0 344 248" fill="none" xmlns="http://www.w3.org/2000/svg">
<rect width="344" height="248" rx="10" fill="#D2D2D2"/>
<path d="M147.716 92.9024C148.231 91.8261 149.021 90.9213 149.997 90.2891C150.973 89.6569 152.097 89.3221 153.243 89.322H168.769C169.919 89.3221 171.045 89.6587 172.023 90.2942C173.001 90.9297 173.791 91.8388 174.304 92.9198L176.717 97.9913H183.688C186.423 97.9913 189.046 99.133 190.98 101.165C192.914 103.197 194 105.954 194 108.828V118.342C192.795 117.248 191.392 116.423 189.875 115.915V108.828C189.875 107.103 189.223 105.45 188.063 104.23C186.903 103.011 185.329 102.326 183.688 102.326H175.439C175.057 102.325 174.682 102.213 174.358 102.002C174.033 101.79 173.77 101.488 173.599 101.13L170.617 94.8573C170.446 94.4963 170.182 94.1927 169.856 93.9806C169.529 93.7684 169.153 93.6563 168.769 93.6566H153.243C152.861 93.6563 152.486 93.7675 152.161 93.978C151.835 94.1885 151.572 94.4899 151.4 94.8487L148.397 101.13C148.225 101.488 147.962 101.789 147.638 101.999C147.313 102.21 146.939 102.321 146.557 102.322H138.316C136.675 102.322 135.101 103.007 133.941 104.226C132.781 105.445 132.129 107.099 132.129 108.823V143.505C132.129 145.229 132.781 146.883 133.941 148.102C135.101 149.322 136.675 150.007 138.316 150.007H153.644L152.971 152.837C152.852 153.344 152.777 153.847 152.748 154.341H138.312C135.577 154.341 132.954 153.2 131.02 151.167C129.086 149.135 128 146.379 128 143.505V108.828C128 105.954 129.086 103.197 131.02 101.165C132.954 99.133 135.577 97.9913 138.312 97.9913H145.283L147.716 92.9024V92.9024Z" fill="#FEFFFF"/>
<path d="M177.019 119.908C176.052 115.8 173.691 112.205 170.378 109.799C167.065 107.394 163.03 106.344 159.032 106.847C155.034 107.349 151.349 109.371 148.67 112.53C145.991 115.689 144.503 119.768 144.487 123.999C144.487 132.192 149.89 139.054 157.158 140.87C157.421 140.535 157.699 140.214 157.991 139.907L160.755 137.003C158.328 136.955 155.968 136.158 153.969 134.711C151.969 133.264 150.419 131.231 149.512 128.865C148.604 126.499 148.378 123.904 148.863 121.405C149.348 118.905 150.522 116.61 152.238 114.807C153.955 113.003 156.138 111.769 158.517 111.26C160.895 110.75 163.364 110.987 165.615 111.941C167.867 112.895 169.802 114.524 171.179 116.625C172.556 118.726 173.314 121.206 173.36 123.757L177.023 119.908H177.019Z" fill="#FEFFFF"/>
<path d="M180.826 122.04L160.904 142.976C159.742 144.196 158.918 145.724 158.519 147.398L156.973 153.891C156.82 154.537 156.829 155.213 156.999 155.854C157.168 156.495 157.493 157.079 157.941 157.549C158.389 158.02 158.945 158.36 159.555 158.538C160.165 158.716 160.809 158.724 161.423 158.563L167.602 156.942C169.194 156.522 170.65 155.659 171.809 154.437L191.732 133.501C193.16 131.976 193.956 129.921 193.948 127.782C193.94 125.643 193.127 123.594 191.688 122.082C190.248 120.57 188.298 119.717 186.263 119.709C184.228 119.701 182.272 120.539 180.822 122.04H180.826Z" fill="#FEFFFF"/>
</svg>
