<svg width="31" height="31" viewBox="0 0 31 31" fill="none" xmlns="http://www.w3.org/2000/svg">
<path d="M16.2202 26.4858L12.8593 23.5216L9.72795 20.7705L13.903 20.2087L18.6 19.5887L19.2054 18.4844H19.1637C18.6845 18.4846 18.2199 18.3319 17.8478 18.0518C17.4756 17.7717 17.2187 17.3813 17.1199 16.9462C17.1179 15.7508 18.7879 16.1383 20.103 14.1234C20.2701 14.0847 25.9899 0 14.2997 0C2.60943 0 8.3293 14.0847 8.3293 14.0847C9.64445 16.022 11.3354 15.7314 11.3145 16.8939C11.2936 18.0563 9.7697 18.4438 8.3293 18.5794C5.9495 18.8312 3.86196 18.3275 1.77441 21.9891C0.521886 24.1009 0 30.9979 0 30.9979H15.3643V30.6686L16.2202 26.4858Z" fill="#FEFFFF"/>
<path d="M22.65 28.5395L27.8062 31L26.8251 25.7885L31.0002 22.1075L25.2385 21.3519L22.65 16.6053L20.0614 21.3519L14.2998 22.1075L18.4749 25.7885L17.4937 31L22.65 28.5395Z" fill="#FEFFFF"/>
</svg>
