<svg width="26" height="23" viewBox="0 0 26 23" fill="none" xmlns="http://www.w3.org/2000/svg">
<path d="M22.75 4.21984H18.4336V3.19968C18.4336 2.365 18.1204 1.66171 17.4941 1.0898C16.8678 0.517888 16.0977 0.231934 15.1836 0.231934H10.8164C9.90234 0.231934 9.13216 0.517888 8.50586 1.0898C7.87956 1.66171 7.56641 2.365 7.56641 3.19968V4.21984H3.25C2.33594 4.21984 1.56576 4.49806 0.939453 5.05451C0.313151 5.61097 0 6.32199 0 7.18758V11.1291C0 11.7783 0.355469 12.1029 1.06641 12.1029V20.0323C1.06641 20.5579 1.28646 21.0216 1.72656 21.4235C2.16667 21.8253 2.67448 22.0263 3.25 22.0263H22.75C23.3255 22.0263 23.8333 21.8253 24.2734 21.4235C24.7135 21.0216 24.9336 20.5579 24.9336 20.0323V12.1029C25.6445 12.1029 26 11.7783 26 11.1291V7.18758C26 6.32199 25.6868 5.61097 25.0605 5.05451C24.4342 4.49806 23.6641 4.21984 22.75 4.21984ZM9.75 3.19968C9.75 2.92145 9.85156 2.68959 10.0547 2.50411C10.2578 2.31863 10.5117 2.22589 10.8164 2.22589H15.1836C15.4883 2.22589 15.7422 2.31863 15.9453 2.50411C16.1484 2.68959 16.25 2.92145 16.25 3.19968V4.21984H9.75V3.19968ZM3.25 20.0323V12.1029H9.75V15.0706C9.75 15.6271 9.96159 16.0985 10.3848 16.485C10.8079 16.8714 11.3242 17.0646 11.9336 17.0646H14.0664C14.6758 17.0646 15.1921 16.8714 15.6152 16.485C16.0384 16.0985 16.25 15.6271 16.25 15.0706V12.1029H22.75V20.0323H3.25ZM11.9336 15.0706V12.1029H14.0664V15.0706H11.9336ZM23.8164 10.1553H2.18359V7.18758C2.18359 6.50747 2.53906 6.16742 3.25 6.16742H22.75C23.4609 6.16742 23.8164 6.50747 23.8164 7.18758V10.1553Z" fill="#2B7A78"/>
</svg>
