<svg width="39" height="39" viewBox="0 0 39 39" fill="none" xmlns="http://www.w3.org/2000/svg">
<path d="M5.57142 0C4.09379 0 2.67668 0.586988 1.63183 1.63183C0.586987 2.67668 0 4.09379 0 5.57143V11.1429C0 12.6205 0.586987 14.0376 1.63183 15.0824C2.67668 16.1273 4.09379 16.7143 5.57142 16.7143H11.1428C12.6205 16.7143 14.0376 16.1273 15.0824 15.0824C16.1273 14.0376 16.7143 12.6205 16.7143 11.1429V5.57143C16.7143 4.09379 16.1273 2.67668 15.0824 1.63183C14.0376 0.586988 12.6205 0 11.1428 0H5.57142Z" fill="currentColor"/>
<path d="M5.57142 22.2857C4.09379 22.2857 2.67668 22.8727 1.63183 23.9175C0.586987 24.9624 0 26.3795 0 27.8571V33.4286C0 34.9062 0.586987 36.3233 1.63183 37.3682C2.67668 38.413 4.09379 39 5.57142 39H11.1428C12.6205 39 14.0376 38.413 15.0824 37.3682C16.1273 36.3233 16.7143 34.9062 16.7143 33.4286V27.8571C16.7143 26.3795 16.1273 24.9624 15.0824 23.9175C14.0376 22.8727 12.6205 22.2857 11.1428 22.2857H5.57142Z" fill="currentColor"/>
<path d="M22.2859 5.57143C22.2859 4.09379 22.8729 2.67668 23.9177 1.63183C24.9626 0.586988 26.3797 0 27.8573 0H33.4287C34.9064 0 36.3235 0.586988 37.3683 1.63183C38.4132 2.67668 39.0002 4.09379 39.0002 5.57143V11.1429C39.0002 12.6205 38.4132 14.0376 37.3683 15.0824C36.3235 16.1273 34.9064 16.7143 33.4287 16.7143H27.8573C26.3797 16.7143 24.9626 16.1273 23.9177 15.0824C22.8729 14.0376 22.2859 12.6205 22.2859 11.1429V5.57143Z" fill="currentColor"/>
<path d="M22.2859 27.8571C22.2859 26.3795 22.8729 24.9624 23.9177 23.9175C24.9626 22.8727 26.3797 22.2857 27.8573 22.2857H33.4287C34.9064 22.2857 36.3235 22.8727 37.3683 23.9175C38.4132 24.9624 39.0002 26.3795 39.0002 27.8571V33.4286C39.0002 34.9062 38.4132 36.3233 37.3683 37.3682C36.3235 38.413 34.9064 39 33.4287 39H27.8573C26.3797 39 24.9626 38.413 23.9177 37.3682C22.8729 36.3233 22.2859 34.9062 22.2859 33.4286V27.8571Z" fill="currentColor"/>
</svg>
